<svg xmlns="http://www.w3.org/2000/svg" viewBox="0 0 500 500"><g id="freepik--background-complete--inject-2"><rect x="402.07" y="376.37" width="35.16" height="11.19" transform="translate(839.3 763.94) rotate(180)" style="fill:#ebebeb"></rect><path d="M421.68,401.67c5.84-.09,20.81-.34,26.45-.41l8.71,0-.46.45,0-11.19.5.5c-5.84,0-20.73-.07-26.37-.15l-8.79-.11.24-.24-.24,11.19Zm0,0-.23-11.19v-.23h.24c4.39-.06,13.2-.16,17.58-.2l17.58-.07h.5v.5l0,11.19v.46h-.45l-8.87,0c-5.6-.06-20.5-.32-26.29-.42Z" style="fill:#ebebeb"></path><path d="M99.24,154c5.84-.1,20.81-.35,26.45-.41l8.71-.05-.46.46,0-11.19.5.5c-5.84,0-20.73-.07-26.37-.15L99.24,143l.24-.24L99.24,154Zm0,0L99,142.8v-.24h.24c4.39-.06,13.2-.16,17.58-.19l17.58-.07h.5v.5L134.85,154v.46h-.45l-8.87,0c-5.6-.06-20.5-.31-26.29-.41Z" style="fill:#ebebeb"></path><path d="M118.85,168.1c5.84-.1,20.81-.35,26.45-.41l8.71-.05-.45.46-.05-11.19.5.5c-5.84,0-20.73-.07-26.37-.15l-8.79-.11.24-.24-.24,11.19Zm0,0-.23-11.19v-.24h.24c4.39-.06,13.2-.16,17.58-.19l17.58-.07h.5v.5l0,11.19v.46H154l-8.87,0c-5.6-.06-20.5-.31-26.29-.41Z" style="fill:#ebebeb"></path><rect x="138.39" y="142.8" width="35.16" height="11.19" transform="translate(311.93 296.79) rotate(180)" style="fill:#ebebeb"></rect><rect x="43.16" y="390.48" width="35.16" height="11.19" transform="translate(121.48 792.16) rotate(180)" style="fill:#ebebeb"></rect><rect x="62.77" y="44.93" width="35.16" height="11.19" transform="translate(160.7 101.06) rotate(180)" style="fill:#ebebeb"></rect><path d="M43.16,70.23c5.84-.1,20.81-.35,26.45-.41l8.71,0-.46.45,0-11.19.5.5c-5.84,0-20.73-.07-26.37-.15l-8.79-.11L43.4,59l-.24,11.19Zm0,0L42.92,59v-.23h.24c4.39-.06,13.19-.16,17.58-.2l17.58-.07h.5V59l0,11.19v.46h-.45l-8.87,0c-5.6-.07-20.51-.32-26.29-.42Z" style="fill:#ebebeb"></path><path d="M402.07,56.12c5.84-.1,20.81-.34,26.45-.41l8.71,0-.46.45,0-11.19.5.5-17.58-.07c-4.38,0-13.2-.13-17.58-.19l.24-.24-.24,11.19Zm0,0-.24-11.19V44.7h.24c4.39-.06,13.2-.16,17.58-.2l17.58-.07h.5v.5l-.05,11.19v.46h-.45l-8.87,0c-5.6-.07-20.5-.32-26.29-.42Z" style="fill:#ebebeb"></path><ellipse cx="402.61" cy="89.2" rx="43.16" ry="42.5" transform="translate(186.08 440.15) rotate(-70.82)" style="fill:#ebebeb"></ellipse><ellipse cx="402.61" cy="89.2" rx="33.67" ry="33.15" transform="translate(186.07 440.14) rotate(-70.82)" style="fill:#fff"></ellipse><path d="M426.55,88.81a24.38,24.38,0,0,1-23.78,24.62,23.8,23.8,0,0,1-24.1-23.84A24.38,24.38,0,0,1,402.45,65,23.81,23.81,0,0,1,426.55,88.81Z" style="fill:#ebebeb"></path><path d="M417.18,89a14.83,14.83,0,0,1-14.48,15A14.5,14.5,0,0,1,388,89.44a14.84,14.84,0,0,1,14.48-15A14.49,14.49,0,0,1,417.18,89Z" style="fill:#fff"></path><path d="M409.1,89.09a6.61,6.61,0,0,1-6.45,6.68,6.45,6.45,0,0,1-6.53-6.46,6.61,6.61,0,0,1,6.45-6.68A6.47,6.47,0,0,1,409.1,89.09Z" style="fill:#ebebeb"></path><rect x="370.87" y="37.49" width="0.73" height="70.42" transform="translate(134.81 368.01) rotate(-62.4)" style="fill:#c7c7c7"></rect><polygon points="337.23 57.86 337.39 57.79 340.25 56.91 334.61 53.97 331.56 54.9 337.23 57.86" style="fill:#c7c7c7"></polygon><path d="M333.94,50.36l1,3,5.63,3a14.13,14.13,0,0,1-1-3Z" style="fill:#c7c7c7"></path><polygon points="403.97 88.48 402.8 90.59 399.67 90.32 401.72 88.64 401.93 86 403.97 88.48" style="fill:#c7c7c7"></polygon><path d="M272.13,193.6a12,12,0,0,1-5.63,10.15H253.76a12,12,0,1,1,18.37-10.15Z" style="fill:#ebebeb"></path><rect x="247.43" y="203.75" width="25.43" height="3.67" style="fill:#ebebeb"></rect><rect x="234.39" y="254.22" width="51.5" height="3.67" style="fill:#dbdbdb"></rect><rect x="234.39" y="264.5" width="51.5" height="3.67" style="fill:#dbdbdb"></rect><rect x="236.3" y="257.89" width="47.66" height="6.61" style="fill:#ebebeb"></rect><rect x="249.77" y="207.42" width="20.74" height="3.67" style="fill:#dbdbdb"></rect><path d="M281.2,254.22H239.07s9.6-9.6,11.62-21.11c1.67-9.71,2.49-22,2.49-22h13.91s.82,12.31,2.51,22C271.59,244.62,281.2,254.22,281.2,254.22Z" style="fill:#ebebeb"></path><path d="M172.05,192c-.17-.47-.34-.95-.5-1.44l.95-.3c.16.47.32.94.49,1.4Z" style="fill:#dbdbdb"></path><path d="M170.73,187.77c-.24-.94-.47-1.9-.66-2.87l1-.19c.19.94.41,1.89.65,2.81ZM169.58,182c-.14-1-.26-1.95-.35-2.92l1-.09c.09,1,.2,1.92.34,2.87Zm-.54-5.86c0-.78,0-1.56,0-2.35v-.59h1v.58c0,.77,0,1.55,0,2.31Zm1.06-5.82-1-.06c.06-1,.14-2,.25-2.93l1,.11Q170.19,168.88,170.1,170.32Zm.63-5.74-1-.16c.15-1,.33-1.94.54-2.89l1,.2C171.06,162.67,170.88,163.63,170.73,164.58Zm1.2-5.66-1-.26c.25-.94.53-1.89.83-2.82l1,.31C172.45,157.07,172.17,158,171.93,158.92Zm1.78-5.49-.93-.36c.35-.92.74-1.83,1.13-2.72l.92.42C174.44,151.63,174.06,152.53,173.71,153.43Zm2.38-5.26-.89-.46c.46-.88.94-1.74,1.44-2.57l.86.51Q176.77,146.88,176.09,148.17Zm3-4.94-.82-.57c.55-.81,1.14-1.61,1.74-2.38l.79.62C180.18,141.65,179.6,142.44,179.06,143.23Zm3.56-4.54-.75-.67c.65-.73,1.33-1.45,2-2.13l.7.71C183.92,137.27,183.25,138,182.62,138.69Zm4.1-4.05-.66-.75c.74-.64,1.51-1.27,2.29-1.86l.61.8C188.19,133.41,187.44,134,186.72,134.64Z" style="fill:#dbdbdb"></path><path d="M191.34,131.14l-.55-.84,1.28-.81.52.85Z" style="fill:#dbdbdb"></path><path d="M175,190.79a2.63,2.63,0,1,1-3.39-1.54A2.62,2.62,0,0,1,175,190.79Z" style="fill:#dbdbdb"></path><path d="M193.54,132.26a2.63,2.63,0,1,0-3.59-.95A2.63,2.63,0,0,0,193.54,132.26Z" style="fill:#dbdbdb"></path><path d="M344.79,107.89c-.34-.35-.7-.7-1.05-1l.68-.73c.37.34.73.7,1.09,1.06Z" style="fill:#dbdbdb"></path><path d="M348.75,192.36l-.78-.62c.62-.77,1.23-1.58,1.81-2.4l.82.58C350,190.76,349.38,191.58,348.75,192.36Zm3.54-5-.85-.53c.52-.85,1-1.72,1.5-2.6l.88.48C353.34,185.61,352.82,186.5,352.29,187.37ZM355.2,182l-.9-.43c.42-.89.82-1.82,1.2-2.75l.93.38C356,180.14,355.63,181.08,355.2,182Zm2.31-5.67-.95-.32c.33-.95.64-1.91.92-2.87l1,.28C358.16,174.39,357.84,175.37,357.51,176.32Zm1.73-5.86-1-.23c.23-1,.45-2,.65-2.94l1,.19C359.7,168.48,359.48,169.48,359.24,170.46Zm1.19-6-1-.15c.15-1,.29-2,.4-3l1,.11C360.72,162.46,360.58,163.47,360.43,164.47Zm.68-6.06-1-.07c.08-1,.13-2,.16-3l1,0C361.24,156.38,361.18,157.39,361.11,158.41Zm-.8-6.1c0-1,0-2-.07-3l1,0c0,1,.07,2,.07,3.05Zm-.25-6c-.09-1-.18-2-.3-3l1-.11c.12,1,.22,2,.3,3Zm-.71-6c-.16-1-.33-2-.52-3l1-.19c.19,1,.37,2,.53,3Zm-1.16-5.92q-.35-1.47-.75-2.91l1-.27c.27,1,.52,2,.76,2.95Zm-1.61-5.8c-.32-1-.65-1.91-1-2.84l.93-.35c.36.95.69,1.91,1,2.88ZM354.47,123c-.39-.92-.81-1.84-1.24-2.74l.9-.43c.44.91.86,1.84,1.26,2.78Zm-2.62-5.4c-.49-.89-1-1.76-1.53-2.59l.85-.53c.53.84,1.05,1.73,1.55,2.63Zm-3.21-5.08c-.59-.81-1.21-1.61-1.84-2.36l.77-.64c.64.77,1.28,1.58,1.88,2.42Z" style="fill:#dbdbdb"></path><path d="M345.69,195.8l-.72-.71c.35-.35.69-.71,1-1.07l.73.68C346.39,195.07,346,195.44,345.69,195.8Z" style="fill:#dbdbdb"></path><path d="M342.45,108.57a2.63,2.63,0,1,1,3.71-.25A2.62,2.62,0,0,1,342.45,108.57Z" style="fill:#dbdbdb"></path><path d="M343.57,193.46a2.63,2.63,0,1,0,3.72,0A2.63,2.63,0,0,0,343.57,193.46Z" style="fill:#dbdbdb"></path><path d="M247.79,71.8l-.82-.57c.28-.41.58-.82.88-1.23l.8.59Z" style="fill:#dbdbdb"></path><path d="M250.5,68.24l-.77-.64c.66-.79,1.34-1.56,2-2.29l.72.69C251.81,66.71,251.14,67.47,250.5,68.24Zm4.1-4.35-.68-.73c.75-.7,1.53-1.37,2.31-2l.63.77C256.1,62.55,255.34,63.21,254.6,63.89Zm4.64-3.75-.57-.82c.84-.59,1.71-1.15,2.57-1.66l.51.86C260.91,59,260.06,59.56,259.24,60.14Zm5.14-3-.45-.89c.92-.45,1.86-.87,2.8-1.25l.37.93C266.18,56.25,265.27,56.65,264.38,57.09Zm32-1.3c-1-.32-1.93-.61-2.87-.86l.26-1c1,.25,1.94.55,2.92.87Zm-26.46-.9-.3-1c1-.29,2-.56,3-.78l.22,1C271.83,54.34,270.86,54.6,269.92,54.89Zm20.68-.66c-1-.2-2-.38-3-.52l.14-1c1,.14,2,.32,3,.53Zm-14.86-.63-.14-1c1-.14,2-.24,3-.31l.07,1C277.71,53.36,276.71,53.46,275.74,53.6Zm8.93-.23c-1-.08-2-.13-3-.14v-1c1,0,2,.06,3.06.14Z" style="fill:#dbdbdb"></path><path d="M300.63,57.34l-1.38-.55.35-.93,1.41.55Z" style="fill:#dbdbdb"></path><path d="M249.66,72.88a2.63,2.63,0,1,1-.73-3.65A2.64,2.64,0,0,1,249.66,72.88Z" style="fill:#dbdbdb"></path><path d="M299.71,59.33a2.63,2.63,0,1,0-1.48-3.42A2.63,2.63,0,0,0,299.71,59.33Z" style="fill:#dbdbdb"></path></g><g id="freepik--Floor--inject-2"><polygon points="41.45 455.55 93.59 455.31 145.73 455.22 250 455.05 354.27 455.22 406.41 455.31 458.55 455.55 406.41 455.8 354.27 455.88 250 456.05 145.73 455.88 93.59 455.79 41.45 455.55" style="fill:#263238"></polygon></g><g id="freepik--Plant--inject-2"><path d="M429,366.07a71.62,71.62,0,0,0-2.31,13c.12.22.1,1,0,.81,0,.72-1.12.58-1.12-.12,0-.46,0-.92.05-1.37-2.55-3.16-6.25-5.17-9.24-7.91a17.42,17.42,0,0,1-5.06-8.06c-2.48-8.54-.15-17.6-3.13-26.12-2.57-7.35-7.19-13.74-11.09-20.4-4.12-7-7.16-14.44-7.46-22.68-.24-6.32.51-14.73,5.32-19.46,5.1-5,11.42-1.26,15.32,3.21,11.32,13,16.56,29.41,18.68,46.19,1.16,9.29,2.38,18.64,2.1,28A75.93,75.93,0,0,1,429,366.07Z" style="fill:#FFC727"></path><path d="M426.78,382.52a159.5,159.5,0,0,0-.31-26.32s0-.05,0-.1c.14-7.11.7-14.2.43-21.32a126.88,126.88,0,0,0-3.14-22.87c0-.09-.15-.07-.13,0a150.1,150.1,0,0,1,2.47,22.37c.14,4,.12,8-.1,12.06-.06,1.3-.19,2.62-.27,3.94v0a140.72,140.72,0,0,0-21.17-56c-.15-.24-.56,0-.41.25a146.27,146.27,0,0,1,17.22,41.53C416,326,407.76,317.68,401.66,308c0-.05-.12,0-.09.06,5.48,10.79,14.53,19.29,20.3,29.92,1,4.33,1.82,8.7,2.43,13.1a146,146,0,0,1,1.31,18.21c-3.31-6.2-6.75-12.13-9.47-18.68-.07-.18-.32-.06-.26.12,2.31,6.8,5.41,14.14,9.75,19.94q0,6.46-.36,12.93c-.67,11.49-2.64,22.82-3.54,34.28a.26.26,0,0,0,.52.05A261.79,261.79,0,0,0,426.78,382.52Z" style="fill:#263238"></path><path d="M414.58,293.91c0-.09-.15,0-.12,0,2.09,5.81,3.28,11.69,4.8,17.64a.22.22,0,0,0,.43-.07C419.07,305.49,416.92,299.47,414.58,293.91Z" style="fill:#263238"></path><path d="M467.87,318.23a87.25,87.25,0,0,1-4.82,9.92c-3.78,6.86-7.72,13.15-8.44,21.14-.32,3.56-.43,7.15-1.52,10.59a31.79,31.79,0,0,1-4.22,8.29c-4.09,6-9.21,11.1-13,17.3a72.66,72.66,0,0,0-8.64,20.84c-.1.4-.73.29-.64-.11a.24.24,0,0,0,0-.09s0,0,0-.08c-.6-17.14.77-34.4,6-50.82a176.59,176.59,0,0,1,8.31-21.14c2.8-5.95,6.29-11.67,11.2-16.12,3.19-2.87,10.11-8.31,14.65-5.43C468.89,313.9,468.73,316.09,467.87,318.23Z" style="fill:#FFC727"></path><path d="M450.65,357.07a139.61,139.61,0,0,1-9.95,14.32c-1.66,2.16-3.34,4.31-5,6.48-.78,1-1.66,2-2.38,3.14q.68-2.7,1.36-5.4c2.21-8.66,4.33-17.39,7.62-25.72a174,174,0,0,1,11.9-23.32c.12-.2-.2-.34-.32-.15-3.62,6-7.3,11.9-10.34,18.18a96.61,96.61,0,0,0-4.39,10.78,167.2,167.2,0,0,1,5.84-23c0-.07-.07-.12-.1,0a78.64,78.64,0,0,0-6.06,24s0,0,0,0c-.74,2.23-1.42,4.47-2.06,6.74-2.7,9.58-5.07,19.27-7.27,29A104.27,104.27,0,0,1,431.16,373c0-.14-.19-.17-.22,0A60.37,60.37,0,0,0,429.29,393q-1.25,5.55-2.43,11.1c-1.69,7.9-3.76,15.94-4.74,24a.16.16,0,0,0,.32.05c1.17-4.32,1.88-8.8,2.84-13.18s2-8.77,3-13.15c1.49-6.38,3.05-12.73,4.64-19.08,1.06-2.33,3.11-4.4,4.65-6.35,1.68-2.15,3.37-4.29,5-6.47a96.82,96.82,0,0,0,8.25-12.76C450.86,357.05,450.71,357,450.65,357.07Z" style="fill:#263238"></path><path d="M451.38,349.74a89.84,89.84,0,0,0-9.74,15.49c0,.07.08.14.12.07,3.28-5.14,6.5-10.32,9.78-15.46C451.59,349.75,451.45,349.66,451.38,349.74Z" style="fill:#263238"></path><path d="M378.45,334.47c2.22,3.83,4.75,8.42,3.8,13-.61,2.91-2.73,5.27-3.12,8.23-.86,6.55,5.66,10.87,10.38,14,11.77,7.71,27.91,14.6,30,30.36.09.56,1.05.42,1-.13a.36.36,0,0,0,0-.1s.06-.05.06-.09a60.45,60.45,0,0,0-.23-24.08c-1.75-8.13-5.3-15.43-9.48-22.57-7.08-12.07-14.58-24.44-25.29-33.7-3-2.55-9-7.16-11.39-1.38C371.89,323.6,375.73,329.81,378.45,334.47Z" style="fill:#FFC727"></path><path d="M389.22,360.08c7.8,8.45,20.2,13.18,26.91,22.64-4-14.5-10.56-27.53-20.68-38.86a.3.3,0,0,1,.43-.43,76.72,76.72,0,0,1,16.9,24.49,109.55,109.55,0,0,0-7.28-18.62.2.2,0,0,1,.35-.2A71.09,71.09,0,0,1,413.69,370c8.85,21.42,9.67,46.54,7.81,69.12,0,.32-.51.33-.5,0,.5-17.79.22-35.89-4.05-53.27-.09-.36-.19-.72-.28-1.08-7.3-10.18-19.65-14.9-27.59-24.57C389,360.13,389.13,360,389.22,360.08Z" style="fill:#263238"></path><path d="M387.41,352.83c4.09,3.76,8.12,7.6,12.23,11.35,0,0,0,.12-.07.08a60.27,60.27,0,0,1-12.41-11.18A.18.18,0,0,1,387.41,352.83Z" style="fill:#263238"></path><path d="M386.76,336.56A128.9,128.9,0,0,0,399,353.41c.06.07,0,.17-.1.1a59.38,59.38,0,0,1-12.37-16.83A.13.13,0,0,1,386.76,336.56Z" style="fill:#263238"></path><polygon points="405.2 455.06 441.06 455.06 436.23 406.8 410.72 406.8 405.2 455.06" style="fill:#455a64"></polygon><polygon points="409.82 414.65 437.02 414.65 436.23 406.8 410.72 406.8 409.82 414.65" style="fill:#263238"></polygon><rect x="406.32" y="401.46" width="33.62" height="7.7" transform="translate(846.26 810.62) rotate(180)" style="fill:#455a64"></rect></g><g id="freepik--Tab--inject-2"><polygon points="331.56 77.2 331.56 176.07 209.71 176.07 197.9 191.37 197.9 176.07 197.9 77.2 331.56 77.2" style="fill:#fff"></polygon><path d="M331.56,77.2c0,.25.25,98.89.25,99.11s-122,0-122.1.1l.27-.13-11.8,15.31-.65.85v-1.07c0-.24.12-114.19.12-114.41s133.75.39,133.91.24Zm0,0-133.67.24c.6-1.56.2,114.3.37,113.93l-.65-.22,11.83-15.29c.06-.3,121.9,0,122.12,0-.52,1.5.1-98.93,0-98.62Z" style="fill:#263238"></path><rect x="197.89" y="77.2" width="133.67" height="5.59" style="fill:#37474f"></rect><path d="M203.18,80a1.06,1.06,0,0,1-2.12,0,1.06,1.06,0,0,1,2.12,0Z" style="fill:#c7c7c7"></path><path d="M207.51,80a1.06,1.06,0,1,1-1.06-1.06A1.06,1.06,0,0,1,207.51,80Z" style="fill:#fff"></path><path d="M211.85,80a1.06,1.06,0,0,1-2.12,0,1.06,1.06,0,1,1,2.12,0Z" style="fill:#FFC727"></path><path d="M266.11,123.5A26.52,26.52,0,0,1,250,147.88L239.63,123.5Z" style="fill:#FFC727"></path><path d="M236.24,121.68l10.35,24.38s0,0-.05,0c-.81.33-1.62.64-2.44.89A26.45,26.45,0,0,1,211,129.55a26.59,26.59,0,0,1,0-15.73,26.41,26.41,0,0,1,17.4-17.4,26.55,26.55,0,0,1,15.72,0,26.47,26.47,0,0,1,17.43,17.4,26.85,26.85,0,0,1,1.19,7.86Z" style="fill:#FFC727"></path><path d="M236.24,121.68l10.35,24.38s0,0-.05,0c-.81.33-1.62.64-2.44.89A26.45,26.45,0,0,1,211,129.55a26.47,26.47,0,1,1,51.74-7.87Z" style="fill:#dbdbdb"></path><path d="M236.25,121.69,219,141.76a26.47,26.47,0,1,1,43.72-20.07Z" style="fill:#455a64"></path><polygon points="279.8 156.76 259.8 156.76 235.04 132 235.4 131.64 260.01 156.25 279.8 156.25 279.8 156.76" style="fill:#263238"></polygon><rect x="233.83" y="130.43" width="2.78" height="2.78" style="fill:#263238"></rect><polygon points="279.8 137.6 257.27 137.6 246.57 126.91 246.93 126.55 257.48 137.09 279.8 137.09 279.8 137.6" style="fill:#263238"></polygon><rect x="245.36" y="125.33" width="2.78" height="2.78" style="fill:#263238"></rect><rect x="245.73" y="118.64" width="34.07" height="0.51" style="fill:#263238"></rect><rect x="243.97" y="117.51" width="2.78" height="2.78" style="fill:#263238"></rect><rect x="287.55" y="116.11" width="24.75" height="2.3" style="fill:#ebebeb"></rect><rect x="287.55" y="120.92" width="32.12" height="2.3" style="fill:#ebebeb"></rect><rect x="287.55" y="125.72" width="17.17" height="2.3" style="fill:#ebebeb"></rect><rect x="277.01" y="116.11" width="5.59" height="5.59" style="fill:#455a64"></rect><rect x="287.55" y="134.71" width="27.76" height="2.3" style="fill:#ebebeb"></rect><rect x="287.55" y="139.52" width="23.16" height="2.3" style="fill:#ebebeb"></rect><rect x="287.55" y="144.33" width="32.12" height="2.3" style="fill:#ebebeb"></rect><rect x="277.01" y="134.71" width="5.59" height="5.59" style="fill:#FFC727"></rect><rect x="287.55" y="153.32" width="27.76" height="2.3" style="fill:#ebebeb"></rect><rect x="287.55" y="158.13" width="23.16" height="2.3" style="fill:#ebebeb"></rect><rect x="287.55" y="162.93" width="32.12" height="2.3" style="fill:#ebebeb"></rect><rect x="277.01" y="153.32" width="5.59" height="5.59" style="fill:#dbdbdb"></rect></g><g id="freepik--speech-bubble--inject-2"><path d="M191.24,115.45a24.14,24.14,0,0,1-38.53,19.38l-11.82,3,4.92-11a24.14,24.14,0,1,1,45.43-11.38Z" style="fill:#fff"></path><path d="M191.24,115.45c.17,14-12.35,25.49-26.24,24.28a24.28,24.28,0,0,1-12.5-4.62l.3.06-11.8,3.1-.88.23.37-.83,4.88-11,0,.42c-5.57-9.89-2.86-23.26,5.93-30.36,15.82-13.08,39.91-1.78,39.92,18.75Zm0,0c.07-15.43-15-27.22-29.94-23.13-14.75,3.66-22.35,21-15.06,34.29l.11.21-.1.21-5,11-.51-.61,11.85-2.94.16,0a23.54,23.54,0,0,0,15.55,4.88c12.57-.3,23-11.35,22.9-23.87Z" style="fill:#263238"></path><path d="M158.67,115.45a2,2,0,1,1-2-2A2,2,0,0,1,158.67,115.45Z" style="fill:#263238"></path><path d="M169.13,115.45a2,2,0,1,1-2-2A2,2,0,0,1,169.13,115.45Z" style="fill:#263238"></path><path d="M179.58,115.45a2,2,0,1,1-2-2A2,2,0,0,1,179.58,115.45Z" style="fill:#263238"></path></g><g id="freepik--light-bulb--inject-2"><g style="opacity:0.5"><path d="M357.32,75.16A24.91,24.91,0,0,1,338.12,93a77.3,77.3,0,0,0-4.14,8.19l-17.92-3.83a77,77,0,0,0-.42-9.17,24.9,24.9,0,0,1-10.22-24.12c1.5-11.39,13-26.24,31.79-22.23l.19,0C356.18,45.89,360.61,64.15,357.32,75.16Z" style="fill:#FFC727"></path></g><g style="opacity:0.7000000000000001"><path d="M355.09,74.77a22.76,22.76,0,0,1-17.57,16.3c-1.38,2.05-4.3,10-4.3,10l-16.39-3.51s.56-8.4.14-10.83a22.78,22.78,0,0,1-9.35-22.07c1.37-10.42,11.9-24,29.07-20.33l.18,0C354,48,358.09,64.7,355.09,74.77Z" style="fill:#FFC727"></path></g><rect x="306.05" y="84.18" width="29.36" height="2" transform="translate(227.12 403.55) rotate(-88.49)" style="fill:#fff"></rect><rect x="320.03" y="87.17" width="29.36" height="2" transform="matrix(0.38, -0.92, 0.92, 0.38, 124.52, 363.17)" style="fill:#fff"></rect><path d="M329.31,82.16a3.17,3.17,0,0,1-.61-.07c-1.66-.35-2.79-2.12-3.43-4.18a2.19,2.19,0,0,1-1.65.42c-2.78-.59-2.67-6.41-2.67-6.66l.75,0c0,1.51.27,5.52,2.07,5.91a1.68,1.68,0,0,0,1.29-.46,12.8,12.8,0,0,1-.24-5.26c.5-2.3,1.76-2.3,2.28-2.18a1.78,1.78,0,0,1,1.39,1.24c.53,1.66-.71,4.42-2.16,6-.14.15-.28.3-.42.43.57,2,1.58,3.66,2.95,4,1.22.26,2.58-.65,3.73-2a5.66,5.66,0,0,1-.4-.93c-.7-2.19-.31-5.13.86-6.42a1.78,1.78,0,0,1,1.76-.64c.5.1,1.6.62,1.06,3.12a13.59,13.59,0,0,1-2.36,4.93,2.49,2.49,0,0,0,1.48,1c1.38.29,3.46-2.64,4.47-4.56l.66.35c-.29.56-2.94,5.45-5.29,4.94A3.15,3.15,0,0,1,333,80,5.31,5.31,0,0,1,329.31,82.16Zm5.13-10.1a1.14,1.14,0,0,0-.84.43c-1,1.1-1.32,3.76-.69,5.69a4,4,0,0,0,.19.51,12.35,12.35,0,0,0,2-4.37c.13-.62.35-2.06-.48-2.24A.86.86,0,0,0,334.44,72.06Zm-7.69-1.65c-.69,0-1,.87-1.19,1.63a11.43,11.43,0,0,0,.13,4.52l.08-.08c1.46-1.62,2.4-4.1,2-5.31a1,1,0,0,0-.83-.74Z" style="fill:#fff"></path><rect x="312.22" y="99.15" width="22.96" height="12.64" transform="translate(29.23 -65.39) rotate(12.08)" style="fill:#455a64"></rect><path d="M331.06,113.5c-1.83,2.06-4.81,3.61-9.63,2.58s-6.92-3.67-7.74-6.29Z" style="fill:#455a64"></path><path d="M331.06,113.5a8.54,8.54,0,0,1-1.87,1.59L314,110.6q-.17-.41-.3-.81Z" style="fill:#37474f"></path><polygon points="336.4 104.19 312.16 101.3 312.39 100.22 336.63 103.11 336.4 104.19" style="fill:#37474f"></polygon><polygon points="335.7 107.45 311.46 104.56 311.69 103.48 335.93 106.37 335.7 107.45" style="fill:#37474f"></polygon><polygon points="335 110.71 310.76 107.82 311 106.75 335.23 109.63 335 110.71" style="fill:#37474f"></polygon><g style="opacity:0.5"><path d="M311.88,61.5c.79.31,2.77-3.71,8.39-7.65,2.5-1.75,10.78-2.83,10.76-5.47s-7.43-1.52-11.75,1.74C312.35,55.38,311.15,61.21,311.88,61.5Z" style="fill:#fff"></path><path d="M352.2,71.05a1.2,1.2,0,0,0,.5-2.35A1.2,1.2,0,0,0,352.2,71.05Z" style="fill:#fff"></path><path d="M341,87.16c.7.81,5.51-2,8.26-6.07,2.29-3.35,3.55-7.94,2.59-8.43s-3,5.75-4.69,7.83C345,83.13,340.26,86.3,341,87.16Z" style="fill:#fff"></path></g></g><g id="freepik--character-1--inject-2"><rect x="118.83" y="326.9" width="8.5" height="6.03" transform="translate(246.15 659.84) rotate(180)" style="fill:#a6a6a6"></rect><rect x="115.39" y="332.94" width="15.37" height="54.14" transform="translate(246.15 720.01) rotate(180)" style="fill:#c7c7c7"></rect><rect x="130.76" y="363.23" width="6.75" height="2.85" transform="translate(268.27 729.3) rotate(180)" style="fill:#a6a6a6"></rect><rect x="137.51" y="361.72" width="13.74" height="5.86" transform="translate(288.77 729.3) rotate(180)" style="fill:#c7c7c7"></rect><rect x="113.41" y="387.08" width="19.81" height="17.87" transform="translate(246.63 792.02) rotate(180)" style="fill:#c7c7c7"></rect><polygon points="121.07 442.2 125.2 442.2 127.51 394.9 118.76 394.9 121.07 442.2" style="fill:#a6a6a6"></polygon><polygon points="177.28 437.24 180.95 434.43 133.22 392.25 133.22 404.94 177.28 437.24" style="fill:#a6a6a6"></polygon><polygon points="69.35 437.24 65.68 434.43 113.41 392.25 113.41 404.94 69.35 437.24" style="fill:#a6a6a6"></polygon><rect x="115.39" y="382.39" width="15.37" height="4.68" transform="translate(246.15 769.47) rotate(180)" style="fill:#a6a6a6"></rect><circle cx="177.44" cy="445.52" r="10.03" style="fill:#263238"></circle><path d="M172.73,445.52a4.72,4.72,0,1,0,4.71-4.72A4.71,4.71,0,0,0,172.73,445.52Z" style="fill:#fff"></path><circle cx="69.14" cy="445.52" r="10.03" style="fill:#263238"></circle><path d="M64.42,445.52a4.72,4.72,0,1,0,4.72-4.72A4.71,4.71,0,0,0,64.42,445.52Z" style="fill:#fff"></path><rect x="120.1" y="439.04" width="6.3" height="16.51" transform="translate(246.5 894.59) rotate(180)" style="fill:#263238"></rect><polygon points="53.67 326.9 212.17 326.9 212.17 314.85 152.83 314.85 132.89 194.18 59.71 194.18 53.67 326.9" style="fill:#FFC727"></polygon><polygon points="53.67 326.9 212.17 326.9 212.17 314.85 152.83 314.85 132.89 194.18 59.71 194.18 53.67 326.9" style="opacity:0.30000000000000004"></polygon><polygon points="152.83 314.85 64.47 314.85 69.75 194.18 132.89 194.18 152.83 314.85" style="opacity:0.2"></polygon><rect x="119.83" y="314.85" width="92.33" height="12.05" style="fill:#FFC727;opacity:0.5"></rect><path d="M245.9,454.62c-3,.26-77.81-19.43-80.37-22.11-1-1,1.2-12.79,4.26-26.95,0,0,10.07-39.84,10.07-39.84l48,11.7L219.78,419s23.66,20.31,26.17,23.55S248.91,454.38,245.9,454.62Z" style="fill: rgb(255, 196, 192);"></path><path d="M245.9,454.62c-3,.26-77.81-19.43-80.36-22.11-1-1,1.19-12.79,4.25-26.95,0,0,.34-1.36.9-3.56l50,12.26-.92,4.72s23.66,20.31,26.16,23.55S248.92,454.38,245.9,454.62Z" style="fill:#ebebeb"></path><path d="M247.05,455.87c-2.93.21-79.86-19.72-82.31-22.33-.94-1,1.46-12.94,4.56-26.61l52,13s23,19.95,25.34,23.11S250,455.67,247.05,455.87Z" style="fill:#FFC727"></path><path d="M247.05,455.87c-2.93.21-79.86-19.72-82.31-22.33-.94-1,1.46-12.94,4.56-26.61l52,13s23,19.95,25.34,23.11S250,455.67,247.05,455.87Z" style="opacity:0.5"></path><path d="M246.74,452.51c-12.81-3.66-64.84-17.2-77.79-19.84-.1,0-.12.05,0,.08,12.62,3.9,64.76,17,77.75,20C247,452.78,247,452.59,246.74,452.51Z" style="fill:#263238"></path><path d="M243,440.12a10.72,10.72,0,0,0-8.53,1.15,10.43,10.43,0,0,0-4.67,6.14c0,.08.13.12.16,0a12.37,12.37,0,0,1,13-7.17A.08.08,0,0,0,243,440.12Z" style="fill:#263238"></path><path d="M226.07,422.92c-4.92-2.06-11.35-2.62-16.06.19-.18.11,0,.37.16.35a74.61,74.61,0,0,1,15.74.1A.33.33,0,0,0,226.07,422.92Z" style="fill:#263238"></path><path d="M229.29,426c-4.92-2.06-11.35-2.62-16,.19-.19.11,0,.37.15.35a73.3,73.3,0,0,1,15.74.1A.33.33,0,0,0,229.29,426Z" style="fill:#263238"></path><path d="M232.51,429c-4.92-2.06-11.35-2.62-16,.19-.19.11,0,.37.15.35a74,74,0,0,1,15.74.1A.33.33,0,0,0,232.51,429Z" style="fill:#263238"></path><path d="M187.69,440.86c-12.43-3.47-22.1-6.42-22.95-7.32s.6-8.38,2.72-18.25Z" style="opacity:0.1"></path><path d="M220.31,419.1l-51-12.17s15-86.94,12.8-89.92c-4.09-5.63-66.37-4.43-85.58-23.52-20.34-20.21-11.46-45.76-11.46-45.76h55.7s3.76,9.55,4.78,9.85C158.16,261.26,204,264.53,222,279c4.65,3.72,12.48,13.4,14.08,23.06C241.18,332.68,220.31,419.1,220.31,419.1Z" style="fill:#263238"></path><path d="M172.71,397.53a25.89,25.89,0,0,1,4.62.68l4.69.93,9.56,2c6.37,1.32,12.71,2.69,19,4.19,3.57.84,7.09,1.83,10.63,2.8.14,0,.08.24-.06.22-12.86-2.09-25.53-5-38.22-7.88l-5.17-1.21a30.29,30.29,0,0,1-5.15-1.46C172.54,397.72,172.6,397.53,172.71,397.53Z" style="fill:#37474f"></path><path d="M168.23,313.43c-20.51-2.86-57.65-6-71.7-19.94-20.34-20.21-11.47-45.76-11.47-45.76h39.76Z" style="fill:#37474f"></path><path d="M179,392.86c-.13.74.29,1.16.54,0,6-27.38,10.34-61.55,10.79-66,.22-2.23.41-4.46.51-6.7.05-1.12.09-2.25.06-3.38a15.46,15.46,0,0,0-.35-3.42,4.16,4.16,0,0,0-.32-.89,2.37,2.37,0,0,0-.66-.77,6.62,6.62,0,0,0-1.58-.86,24,24,0,0,0-3.24-1c-2.18-.57-4.38-1-6.58-1.41-4.4-.81-8.82-1.49-13.23-2.17-8.83-1.32-17.66-2.6-26.43-4.24s-17.51-3.52-25.81-6.69c-4.09-1.65-8.19-3.61-11-7.07a39.45,39.45,0,0,1-7.35-11,48,48,0,0,1-3.41-26.15,48.17,48.17,0,0,0,3,26.34,40,40,0,0,0,7.34,11.24,29.92,29.92,0,0,0,2.37,2.41,24.39,24.39,0,0,0,2.77,2,42,42,0,0,0,6.06,3,96.13,96.13,0,0,0,12.81,4c4.35,1.09,8.72,2,13.12,2.84,8.78,1.66,17.62,3,26.44,4.33,4.41.67,8.83,1.32,13.21,2.11,2.19.4,4.37.83,6.51,1.38a24.31,24.31,0,0,1,3.13,1,5.86,5.86,0,0,1,1.36.73,1.27,1.27,0,0,1,.42.48,3.2,3.2,0,0,1,.25.68,15.42,15.42,0,0,1,.34,3.22c0,1.1,0,2.21-.05,3.32-.09,2.22-.28,4.44-.49,6.65-.44,4.43-1,8.86-1.61,13.28C186.59,348.89,180.51,384.07,179,392.86Z" style="fill:#37474f"></path><path d="M184.94,454.48c-2.88.93-68.93-.13-72-2.16-1.19-.75-1.73-12.73-2-27.22,0-.15,0-.3,0-.46-.05-3-.09-6.06-.1-9.17,0-.43,0-.86,0-1.29-.12-20.92,2.18-42.12,2.18-42.12l53,.06-1.65,42.21-.06,1.67-.33,8.74,0,.9s15.17,14.47,18.34,17.06S187.82,453.56,184.94,454.48Z" style="fill: rgb(255, 196, 192);"></path><path d="M187.83,454.76c-2.78.91-72.43.28-75.45-1.66-1.14-.73-1.73-12.91-2-26.92h54.74s17,14.71,20.07,17.19S190.62,453.85,187.83,454.76Z" style="fill:#FFC727"></path><path d="M187.83,454.76c-2.78.91-72.43.28-75.45-1.66-1.14-.73-1.73-12.91-2-26.92h54.74s17,14.71,20.07,17.19S190.62,453.85,187.83,454.76Z" style="opacity:0.5"></path><path d="M186.72,451.57c-13.32-.43-57.26-.92-70.46-.33-.11,0-.11.07,0,.08,13.19.72,57.13.77,70.46.47C187,451.78,187,451.58,186.72,451.57Z" style="fill:#263238"></path><path d="M183.87,443.09c-7.27-3.57-15.57-4.47-21-3.3-5.19,1.12-10.36,3.67-12.17,8.18,0,.13.29.29.38.17,5.6-7.51,20-9.77,32.64-4.78C184,443.46,184.12,443.21,183.87,443.09Z" style="fill:#263238"></path><path d="M166.65,434.1a41.61,41.61,0,0,0-24.9.92c-.28.1.06.45.33.43,8.25-.86,15.77-1.54,24.5-.55C167.18,435,167.24,434.26,166.65,434.1Z" style="fill:#263238"></path><path d="M163.85,430.7a41.61,41.61,0,0,0-24.9.92c-.28.1.06.45.33.43,8.25-.86,15.77-1.54,24.5-.55C164.38,431.57,164.44,430.86,163.85,430.7Z" style="fill:#263238"></path><path d="M161.05,427.3a41.64,41.64,0,0,0-24.91.92c-.27.1.07.45.34.42,8.25-.85,15.77-1.53,24.5-.54C161.58,428.17,161.64,427.46,161.05,427.3Z" style="fill:#263238"></path><path d="M165.67,427.05l-56.14-.43s.39-92.33-2.37-99.64-13-12.71-25.32-27c-18.75-21.7-2.38-52.2-2.38-52.2l54.85,0s7.13,18,6.7,25.26c0,0-5.88.37-9.45.38,0,0,25.54,21.12,32.05,40.9C169.2,331.23,165.67,427.05,165.67,427.05Z" style="fill:#263238"></path><path d="M115.92,274.63a73.26,73.26,0,0,1,15.55-1.84,108.89,108.89,0,0,1,15.84.79.11.11,0,1,1,0,.22c-5.24.18-10.47.46-15.7.75s-10.41.72-15.62.72A.33.33,0,0,1,115.92,274.63Z" style="fill:#37474f"></path><path d="M89.12,267.5a41.69,41.69,0,0,0,7.24-1.64,10.48,10.48,0,0,0,5.17-2.76c2.77-3,3.92-7,6.07-10.39a.11.11,0,0,1,.2.09,50.58,50.58,0,0,1-2,6.91,14.41,14.41,0,0,1-3,5.21c-3.43,3.57-9.09,3.11-13.62,3C88.8,268,88.83,267.52,89.12,267.5Z" style="fill:#37474f"></path><path d="M112.56,415.62a27.23,27.23,0,0,1,4.77-.37c1.64-.05,3.27-.1,4.91-.13l10-.21c6.67-.13,13.33-.21,20-.16,3.76,0,7.51.2,11.27.36a.12.12,0,0,1,0,.23c-13.33.83-26.66.85-40,.83-1.82,0-3.64,0-5.45,0a31.31,31.31,0,0,1-5.48-.28C112.43,415.84,112.45,415.64,112.56,415.62Z" style="fill:#37474f"></path><path d="M138.51,250c-.26,3.31-.45,6.64-.85,9.95-.19,1.55-.34,3.13-.64,4.67a3,3,0,0,1-.84,1.78,3.75,3.75,0,0,1-2,.68,2.17,2.17,0,0,1-2.7-2.11c-.28-3,.6-13.53.63-14.39,0-.17-.56-.18-.58,0-.81,6.62-1.9,15.07-.51,16.52a4.44,4.44,0,0,0,5.76.4,4.1,4.1,0,0,0,1.26-2.7c.22-1.44.28-2.92.39-4.38.26-3.46.56-6.92.63-10.4C139.06,249.7,138.53,249.69,138.51,250Z" style="fill:#37474f"></path><path d="M133.55,267.54a10.26,10.26,0,0,0-.26,1.25c-.08.43-.17.85-.28,1.27s-.19.84-.3,1.25-.19.84-.28,1.26a.16.16,0,0,0,.3.1,8.75,8.75,0,0,0,.51-1.18c.14-.42.28-.84.39-1.27s.21-.83.3-1.26a5.88,5.88,0,0,0,.22-1.31C134.15,267.35,133.65,267.24,133.55,267.54Z" style="fill:#37474f"></path><path d="M81.58,252.94a118.35,118.35,0,0,0-1.31,21.37,35.9,35.9,0,0,0,1.82,10.59,20.08,20.08,0,0,0,2.63,4.73c1,1.47,2.16,2.87,3.32,4.23,4.64,5.47,9.74,10.47,14.7,15.59,2.48,2.56,5,5.13,7.26,7.82a33.28,33.28,0,0,1,3.16,4.21,15.28,15.28,0,0,1,1.57,4.91c.64,3.47,1,7,1.29,10.56s.5,7.11.68,10.67c.35,7.12.52,12.25.69,19.38s-.14,36.07-.17,42.81c0,.4.56.51.61,0,.2-7.14.23-14.27.32-21.41s.06-14.27,0-21.41-.24-12.28-.55-19.41c-.16-3.57-.35-7.14-.63-10.7a107.22,107.22,0,0,0-1.27-10.68,24.74,24.74,0,0,0-.61-2.65A9.51,9.51,0,0,0,114,321a33.42,33.42,0,0,0-3.27-4.33c-2.35-2.72-4.84-5.28-7.34-7.83-5-5.11-10.09-10.1-14.79-15.44-1.17-1.34-2.29-2.71-3.34-4.14a19.36,19.36,0,0,1-2.61-4.56,36.86,36.86,0,0,1-1.93-10.4A118.13,118.13,0,0,1,81.58,252.94Z" style="fill:#37474f"></path><path d="M115,185.91c14.34,20.26,36,42.7,42.32,45.19,8,3.15,47-3.64,49-4.19,3.26-.9-.78-32.94-3.88-32.36-9.3,1.75-34.19,7.73-36.55,6.71s-20.17-11-39-22.69C113.8,170.48,106.07,173.35,115,185.91Z" style="fill: rgb(255, 196, 192);"></path><path d="M204.07,227.43c3.51,0,19.57-1.26,24-2.62s16.75-6.18,16.05-9.65-4.43-2.34-4.43-2.34,4.9-2.86,3.87-6.29-6.76-1.49-6.76-1.49,4.81-3.31,3.55-6.65-6.71-.43-6.71-.43,4.54-2.82,2.33-5.14c-2.64-2.79-10.42,3.35-15.38,4.49-1.13.26-23.21,3.6-23.21,3.6Z" style="fill: rgb(255, 196, 192);"></path><path d="M234.07,197.72c-5.74,4.5-9,5.48-16.16,6.21-.14,0-.15.23,0,.22,7.06-.08,11.36-.71,16.4-6.17C234.55,197.72,234.34,197.5,234.07,197.72Z" style="fill:#263238"></path><path d="M237.21,204.67c-6.37,4.16-9.92,5.25-17.34,6.57-.11,0-.09.2,0,.19,7.39-.69,11.66-1.41,17.48-6.4C237.63,204.8,237.5,204.48,237.21,204.67Z" style="fill:#263238"></path><path d="M239.27,212.87c-6.45,3.58-10.3,4.95-17.67,5.3a.14.14,0,0,0,0,.28c7.55.36,12.36-1.3,17.76-5.37C239.73,212.8,239.68,212.65,239.27,212.87Z" style="fill:#263238"></path><rect x="213.65" y="179.21" width="25.13" height="39.07" transform="translate(25.75 -25.95) rotate(6.96)" style="fill:#37474f"></rect><rect x="211.85" y="178.99" width="25.13" height="39.07" transform="translate(25.71 -25.73) rotate(6.96)" style="fill:#263238"></rect><rect x="214.71" y="188.01" width="4.83" height="4.83" transform="translate(24.68 -24.91) rotate(6.96)" style="fill:#dbdbdb"></rect><rect x="220.14" y="188.68" width="4.83" height="4.83" transform="translate(24.8 -25.56) rotate(6.96)" style="fill:#dbdbdb"></rect><rect x="225.58" y="189.34" width="4.83" height="4.83" transform="translate(24.92 -26.21) rotate(6.96)" style="fill:#FFC727"></rect><rect x="231.01" y="190.01" width="4.83" height="4.83" transform="translate(25.04 -26.87) rotate(6.96)" style="fill:#FFC727"></rect><rect x="214.04" y="193.52" width="4.83" height="4.83" transform="translate(25.34 -24.79) rotate(6.96)" style="fill:#455a64"></rect><rect x="219.47" y="194.18" width="4.83" height="4.83" transform="translate(25.46 -25.44) rotate(6.96)" style="fill:#455a64"></rect><rect x="224.91" y="194.84" width="4.83" height="4.83" transform="translate(25.58 -26.09) rotate(6.96)" style="fill:#455a64"></rect><rect x="230.34" y="195.54" width="4.83" height="4.83" transform="translate(25.7 -26.75) rotate(6.96)" style="fill:#dbdbdb"></rect><rect x="213.37" y="199.02" width="4.83" height="4.83" transform="translate(26 -24.66) rotate(6.96)" style="fill:#455a64"></rect><rect x="218.8" y="199.68" width="4.83" height="4.83" transform="translate(26.12 -25.32) rotate(6.96)" style="fill:#455a64"></rect><rect x="224.24" y="200.34" width="4.83" height="4.83" transform="translate(26.24 -25.97) rotate(6.96)" style="fill:#455a64"></rect><rect x="229.67" y="201.01" width="4.83" height="4.83" transform="translate(26.36 -26.62) rotate(6.96)" style="fill:#dbdbdb"></rect><rect x="212.69" y="204.52" width="4.83" height="4.83" transform="translate(26.66 -24.54) rotate(6.96)" style="fill:#455a64"></rect><rect x="218.13" y="205.18" width="4.83" height="4.83" transform="translate(26.79 -25.2) rotate(6.96)" style="fill:#455a64"></rect><rect x="223.56" y="205.85" width="4.83" height="4.83" transform="translate(26.91 -25.85) rotate(6.96)" style="fill:#455a64"></rect><rect x="229" y="206.51" width="4.83" height="4.83" transform="translate(27.03 -26.51) rotate(6.96)" style="fill:#dbdbdb"></rect><rect x="212.02" y="210.02" width="4.83" height="4.83" transform="translate(27.33 -24.42) rotate(6.96)" style="fill:#455a64"></rect><rect x="217.46" y="210.68" width="4.83" height="4.83" transform="translate(27.45 -25.08) rotate(6.96)" style="fill:#455a64"></rect><rect x="222.89" y="211.35" width="4.83" height="4.83" transform="translate(27.57 -25.73) rotate(6.96)" style="fill:#dbdbdb"></rect><rect x="228.33" y="212.01" width="4.83" height="4.83" transform="translate(27.69 -26.38) rotate(6.96)" style="fill:#dbdbdb"></rect><path d="M216.47,189.88h0a.33.33,0,1,1,.66.08h0a.33.33,0,1,1-.66-.07Zm.48.06h0a.18.18,0,0,0-.13-.22c-.09,0-.16.07-.17.18h0a.18.18,0,0,0,.13.22C216.87,190.13,216.94,190,217,189.94Zm-.36.9,1.06-1.14a.11.11,0,0,1,.08,0,.09.09,0,0,1,.07.09.09.09,0,0,1,0,.05L216.7,191a.09.09,0,0,1-.07,0,.1.1,0,0,1-.07-.09A.05.05,0,0,1,216.59,190.84Zm.64-.14h0a.34.34,0,0,1,.37-.32.35.35,0,0,1,.29.4h0a.35.35,0,0,1-.38.32A.33.33,0,0,1,217.23,190.7Zm.48.05h0c0-.11,0-.21-.13-.22s-.16.07-.17.18h0c0,.12,0,.21.12.23S217.7,190.86,217.71,190.75Z" style="fill:#37474f"></path><path d="M226.8,191.48a.73.73,0,0,1,.82-.63.79.79,0,0,1,.44.21.12.12,0,0,1,0,.16.1.1,0,0,1-.16,0,.57.57,0,0,0-.31-.15.62.62,0,0,0-.38.1.56.56,0,0,0-.19.33.51.51,0,0,0,.45.56.54.54,0,0,0,.33-.07.13.13,0,0,1,.16,0,.13.13,0,0,1,0,.16.71.71,0,0,1-.48.09A.72.72,0,0,1,226.8,191.48Z" style="fill:#37474f"></path><path d="M228.32,192.28l.15-1.18a.1.1,0,0,1,.12-.09h0l.64.08a.11.11,0,0,1,.1.12.13.13,0,0,1-.12.1l-.55-.07,0,.37.47,0a.12.12,0,0,1,.09.13.12.12,0,0,1-.12.1l-.47-.06,0,.37.54.06a.13.13,0,0,1,.1.13.11.11,0,0,1-.13.09l-.64-.07h0A.11.11,0,0,1,228.32,192.28Z" style="fill:#37474f"></path><path d="M232.82,192.21a.75.75,0,0,1,1.27-.41.12.12,0,0,1,0,.16.14.14,0,0,1-.17,0,.54.54,0,0,0-.3-.15.5.5,0,0,0-.57.43.48.48,0,0,0,.1.37.57.57,0,0,0,.35.18.48.48,0,0,0,.33-.07.13.13,0,0,1,.16,0,.12.12,0,0,1,0,.16.79.79,0,0,1-.48.1A.74.74,0,0,1,232.82,192.21Z" style="fill:#37474f"></path><path d="M217,195.44l-.64,1.11a.13.13,0,0,1-.11.06l0,0a.11.11,0,0,1,0-.15l.56-1-.52-.06a.11.11,0,0,1-.09-.13.1.1,0,0,1,.12-.09l.69.08h0l0,0h0v.07Z" style="fill:#fff"></path><path d="M222.3,196.87a.49.49,0,0,1-.54.42.5.5,0,0,1-.42-.54.48.48,0,0,1,.26-.37.33.33,0,0,1,.33-.49.33.33,0,0,1,.2.56A.47.47,0,0,1,222.3,196.87Zm-.22,0a.26.26,0,0,0-.23-.29.27.27,0,0,0-.29.23.27.27,0,0,0,.23.29A.27.27,0,0,0,222.08,196.84Zm-.3-.64a.12.12,0,0,0,.1.13.11.11,0,0,0,.12-.1.1.1,0,0,0-.09-.12A.11.11,0,0,0,221.78,196.2Z" style="fill:#fff"></path><path d="M226.84,197a.49.49,0,0,1,.55-.43.48.48,0,0,1,.42.5h0a.45.45,0,0,0,0,.11,1.48,1.48,0,0,1-.12.41.81.81,0,0,1-.3.31.63.63,0,0,1-.31.05.11.11,0,0,1-.11-.12.12.12,0,0,1,.12-.1.42.42,0,0,0,.2,0,.43.43,0,0,0,.14-.13l0-.05a.4.4,0,0,1-.19,0A.49.49,0,0,1,226.84,197Zm.22,0a.27.27,0,0,0,.23.29.27.27,0,0,0,.3-.23.25.25,0,0,0-.23-.29A.26.26,0,0,0,227.06,197Z" style="fill:#fff"></path><path d="M232.33,197.91a.11.11,0,0,1,.13-.11l.62.08a.12.12,0,0,1,0,.23l-.62-.07A.11.11,0,0,1,232.33,197.91Z" style="fill:#37474f"></path><path d="M216.28,201.79a.1.1,0,0,1-.12.09h0l0,.15a.11.11,0,0,1-.22,0l0-.16-.63-.07h0a.09.09,0,0,1-.07,0,.12.12,0,0,1,0-.16l.86-.83h0s0,0,0,0h.13l-.1.8h0A.11.11,0,0,1,216.28,201.79Zm-.28-.65-.45.45.39,0Z" style="fill:#fff"></path><path d="M221.5,201.94a.51.51,0,0,1,.11.37.53.53,0,0,1-.19.33.51.51,0,0,1-.37.11h0a.49.49,0,0,1-.33-.19.11.11,0,0,1,0-.16.11.11,0,0,1,.16,0,.27.27,0,1,0,.24-.44.26.26,0,0,0-.2.06.11.11,0,0,1-.16,0s0,0,0,0h0v0l.12-.51a.14.14,0,0,1,.06-.07H221l.59.08a.1.1,0,0,1,.1.12.11.11,0,0,1-.13.1l-.49-.06-.05.2h.14A.49.49,0,0,1,221.5,201.94Z" style="fill:#fff"></path><path d="M227.09,203a.49.49,0,0,1-.54.43.48.48,0,0,1-.43-.49h0a.41.41,0,0,1,0-.11.93.93,0,0,1,.12-.4.63.63,0,0,1,.29-.31.58.58,0,0,1,.32-.06.11.11,0,0,1,.1.12.12.12,0,0,1-.12.1.42.42,0,0,0-.2,0,.43.43,0,0,0-.14.13l0,.05a.41.41,0,0,1,.19,0A.49.49,0,0,1,227.09,203Zm-.22,0a.27.27,0,1,0-.53-.07.27.27,0,1,0,.53.07Z" style="fill:#fff"></path><path d="M231.69,203.44a.1.1,0,0,1-.09-.12.11.11,0,0,1,.12-.09l.8.1a.12.12,0,0,1,.1.12.12.12,0,0,1-.12.09Zm.61-.46h0a.15.15,0,0,1-.16.12A.14.14,0,0,1,232,203h0a.14.14,0,0,1,.16-.12A.14.14,0,0,1,232.3,203Zm-.1.83h0a.12.12,0,0,1-.15.12.14.14,0,0,1-.12-.15h0a.13.13,0,0,1,.15-.12A.15.15,0,0,1,232.2,203.81Z" style="fill:#37474f"></path><path d="M215.4,206.33l-.15,1.18a.11.11,0,0,1-.12.1.11.11,0,0,1-.1-.13l.12-1-.08,0H215a.13.13,0,0,1-.09-.07.11.11,0,0,1,.06-.15l.26-.11h.16v0Z" style="fill:#fff"></path><path d="M220.92,208.2a.11.11,0,0,1-.12.1l-.71-.09h0a.12.12,0,0,1-.08,0,.11.11,0,0,1,0-.16l.65-.46a.25.25,0,0,0,.11-.18.23.23,0,0,0-.05-.18.23.23,0,0,0-.18-.11.24.24,0,0,0-.18,0l-.07,0a.1.1,0,0,1-.15,0,.1.1,0,0,1,0-.15l.07-.05a.5.5,0,0,1,.68.12.49.49,0,0,1,.08.33.52.52,0,0,1-.2.34l-.42.3.43.05A.1.1,0,0,1,220.92,208.2Z" style="fill:#fff"></path><path d="M226.28,208.11a.45.45,0,0,1,.1.36.48.48,0,0,1-.18.34.51.51,0,0,1-.37.1.49.49,0,0,1-.34-.19.14.14,0,0,1,0-.16.11.11,0,0,1,.16,0,.27.27,0,0,0,.18.1.31.31,0,0,0,.21-.05.27.27,0,0,0,.1-.18.25.25,0,0,0-.06-.2.27.27,0,0,0-.18-.11.12.12,0,0,1-.08,0h0a.11.11,0,0,1,0-.16l.23-.19-.33,0a.1.1,0,0,1-.09-.12.1.1,0,0,1,.12-.1l.59.07a.11.11,0,0,1,.1.13s0,0,0,.05l0,0-.29.23A.37.37,0,0,1,226.28,208.11Z" style="fill:#fff"></path><path d="M231.77,208.8l-.27.3.19.36a.11.11,0,0,1,0,.14l-.07,0a.16.16,0,0,1-.08-.06l-.17-.3-.23.25a.12.12,0,0,1-.09,0l-.06,0a.11.11,0,0,1,0-.15l.28-.3-.2-.36a.11.11,0,0,1,0-.14.12.12,0,0,1,.15,0l.16.3.24-.25a.11.11,0,0,1,.15,0A.1.1,0,0,1,231.77,208.8Z" style="fill:#37474f"></path><path d="M214.47,212.82a.15.15,0,1,1,0,.3.15.15,0,0,1-.13-.17A.15.15,0,0,1,214.47,212.82Z" style="fill:#fff"></path><path d="M219.3,213a.87.87,0,0,1,.19-.46.45.45,0,0,1,.4-.18.43.43,0,0,1,.34.27.88.88,0,0,1,.08.49.81.81,0,0,1-.19.46.42.42,0,0,1-.74-.09A.79.79,0,0,1,219.3,213Zm.79.1a.69.69,0,0,0-.05-.37.26.26,0,0,0-.17-.15.29.29,0,0,0-.21.1.66.66,0,0,0-.14.35.67.67,0,0,0,0,.36.25.25,0,0,0,.18.15.23.23,0,0,0,.2-.1A.66.66,0,0,0,220.09,213.09Z" style="fill:#fff"></path><path d="M224.91,213.52a.13.13,0,0,1,.13-.1l.61.08a.13.13,0,0,1,.11.13.12.12,0,0,1-.13.1l-.62-.08A.11.11,0,0,1,224.91,213.52Zm0,.37a.12.12,0,0,1,.14-.1l.61.07a.12.12,0,0,1,.1.14.11.11,0,0,1-.13.1L225,214A.13.13,0,0,1,224.86,213.89Z" style="fill:#37474f"></path><path d="M230.64,214.48l-.29,0a.11.11,0,0,1-.09-.13.1.1,0,0,1,.12-.09l.28,0,0-.28a.12.12,0,0,1,.13-.1.13.13,0,0,1,.1.13l0,.28.29,0a.11.11,0,0,1,.09.13.1.1,0,0,1-.12.09l-.28,0,0,.28a.12.12,0,0,1-.13.1.13.13,0,0,1-.1-.13Z" style="fill:#37474f"></path><path d="M223.33,190.5a.1.1,0,0,1-.1.08l-.25,0c-.14.27-.5,1-.58,1.21,0,0,0,.05-.05.06l-.06,0a.14.14,0,0,1-.08-.05l-.31-.39c-.1-.15,0-.21,0-.21s0,0,.05,0a.11.11,0,0,1,.07,0l.08.1.06.09.06.07.07.09c.08-.2.46-1,.56-1.15h0l0,0a.09.09,0,0,1,.07,0l.32,0A.09.09,0,0,1,223.33,190.5Z" style="fill:#37474f"></path><rect x="215.59" y="181.17" width="21.26" height="5.09" transform="translate(23.93 -26.06) rotate(6.96)" style="fill:#fff"></rect><path d="M192.33,198s6.86-6,10.46-8,19.73-4.45,20.46-1c.94,4.46-8.09,7.72-12.72,8.74,0,0,2.19,10.31-3.78,14S192.33,198,192.33,198Z" style="fill: rgb(255, 196, 192);"></path><path d="M223.1,190.28c-2.07,4.69-8.23,5.63-12.65,7a.42.42,0,0,0-.25.65c.63,4.38.24,10.75-3.17,13.94a.11.11,0,0,0,.13.17c4.13-2.93,5-9.15,4-13.91,4.55-1.29,10.7-2.51,12-7.79A0,0,0,0,0,223.1,190.28Z" style="fill:#263238"></path><path d="M194.66,192.92l5.89,38.14s-35,5.93-43.38,2.08-32.24-31.67-41.79-46-1.5-17.17,9.79-10.31,39.14,23.28,40.36,23.38S194.66,192.92,194.66,192.92Z" style="fill:#FFC727"></path><path d="M188.91,217.3c-.68-4.3-1.32-8.61-2.15-12.88-.47-2.43-.93-4.86-1.43-7.29,0-.09-.17-.07-.16,0,.5,4.35,1,8.7,1.72,13s1.36,8.6,2.12,12.89c.43,2.44.93,4.85,1.51,7.26,0,.05.09,0,.08,0C190.24,226,189.58,221.63,188.91,217.3Z" style="fill:#263238"></path><path d="M161.65,234.17a15,15,0,0,1-4.47-1c-8.35-3.86-32.24-31.67-41.8-46-6.85-10.27-4.64-14.64,1.33-13.75C130.4,191.59,146.37,213.36,161.65,234.17Z" style="opacity:0.1"></path><path d="M69.69,267.36c.18.21,76.36-9.29,77.1-10.09,1-1.11-9.2-63.1-21.63-80.44-3.11-4.33-14-4.89-19.21-1.16C80.23,194.18,69.06,266.61,69.69,267.36Z" style="fill:#FFC727"></path><path d="M98.58,182.55c-21,19.88-44.56,60.08-40.1,69,5,9.95,34.21-17.93,34.16-19.61,0-1.28,7.36-25,15.55-43.89S103.77,177.63,98.58,182.55Z" style="fill: rgb(255, 196, 192);"></path><path d="M92.82,232c1-2.78,12.23-34.78,16.48-45.6,3.8-9.72,2.12-13.82-6.27-8C87.59,189.1,62.8,221.55,56.67,239.16c-5.91,17,5.5,17.6,17.42,10.09C83.85,243.1,92.82,232,92.82,232Z" style="fill:#FFC727"></path><path d="M90.85,236.79q6.33-19.9,14.34-39.21-6.31,19.9-14.34,39.21Z" style="fill:#263238"></path><path d="M102.55,205.21a21.33,21.33,0,0,1,2.92-4.64,14,14,0,0,1-2.92,4.64Z" style="fill:#263238"></path><path d="M106.1,177.9c.65.84,1.33,1.66,2,2.47s1.4,1.59,2.11,2.37c1.44,1.55,2.91,3,4.45,4.48s3.11,2.81,4.74,4.11,3.32,2.52,5,3.69l-.57.14s.09-.2.14-.31a3.19,3.19,0,0,0,.13-.37c.09-.25.16-.5.24-.77.14-.52.26-1.05.38-1.59.23-1.07.42-2.16.6-3.25s.34-2.2.5-3.29l.45-3.31c0,1.11,0,2.23-.11,3.34s-.15,2.22-.26,3.34-.26,2.22-.46,3.32c-.1.56-.21,1.11-.35,1.66-.06.27-.14.55-.22.83,0,.13-.09.27-.14.41a3,3,0,0,1-.2.46l-.21.38-.36-.24a61.81,61.81,0,0,1-5.12-3.72c-.83-.65-1.62-1.36-2.42-2.05-.4-.35-.78-.73-1.17-1.09s-.77-.72-1.14-1.1a58.26,58.26,0,0,1-4.3-4.72A49.32,49.32,0,0,1,106.1,177.9Z" style="fill:#263238"></path><path d="M120.36,188.78c-3.33-.16-9.65-7-11.85-12.46-.15-.38.83-4,1.81-8.52.59-2.72,1.17-5.77,1.51-8.59L129,165.6a45.25,45.25,0,0,0-3,10.63,5.74,5.74,0,0,0,0,1.17v.2C126.11,179.84,125.57,189,120.36,188.78Z" style="fill: rgb(255, 196, 192);"></path><path d="M126,177.41a1,1,0,0,1,0,.19,10.8,10.8,0,0,1-1.83-.12c-10-1.42-11.05-14-11.11-17.81l16,5.93a45.88,45.88,0,0,0-3,10.64A7.64,7.64,0,0,0,126,177.41Z" style="fill:#263238"></path><path d="M110.73,140.17c-2.1,6.26.71,24.6,5.08,28.8,6.35,6.08,17,6.95,22.23-.74,5.07-7.45,1-31.28-3.93-35.12C126.88,127.45,113.85,130.92,110.73,140.17Z" style="fill: rgb(255, 196, 192);"></path><path d="M125,149.33c.54-.16,1-.4,1.54-.61a2.73,2.73,0,0,0,1.45-.93.87.87,0,0,0-.18-1,2.1,2.1,0,0,0-2.14-.12,3.1,3.1,0,0,0-1.74,1.42A.91.91,0,0,0,125,149.33Z" style="fill:#263238"></path><path d="M137.67,148a14.7,14.7,0,0,1-1.64-.22,2.73,2.73,0,0,1-1.64-.54.86.86,0,0,1-.07-1,2.1,2.1,0,0,1,2-.65,3.12,3.12,0,0,1,2,1A.91.91,0,0,1,137.67,148Z" style="fill:#263238"></path><path d="M127.32,163.53c.32.27.64.66,1.1.66a3.18,3.18,0,0,0,1.32-.41s.08,0,0,.06a1.69,1.69,0,0,1-1.53.79,1.34,1.34,0,0,1-1.06-1C127.18,163.53,127.27,163.49,127.32,163.53Z" style="fill:#263238"></path><path d="M128.37,159.71a4.27,4.27,0,0,0,3,1.69,5.61,5.61,0,0,0,1.53,0l.29-.05.27-.06a.31.31,0,0,0,.23-.3h0a.3.3,0,0,0,0-.13h0v-.11c0-1-.24-2.41-.24-2.41.37.15,2.21.83,2.15.33A64.11,64.11,0,0,0,133,145.88a.12.12,0,0,0-.23.05c.36,4,1.43,7.89,1.85,11.9a7.46,7.46,0,0,0-2-.47c-.14,0,.43,2.8.41,3.24a.1.1,0,0,1,0,0,5.92,5.92,0,0,1-4.49-1C128.38,159.52,128.28,159.61,128.37,159.71Z" style="fill:#263238"></path><path d="M128.3,152.08c0-.05-.09.07-.08.12.15,1.23.11,2.67-1,3.18,0,0,0,.08,0,.07C128.61,155.13,128.64,153.22,128.3,152.08Z" style="fill:#263238"></path><path d="M127.08,150.89c-2,0-1.8,4,.06,4S128.76,150.87,127.08,150.89Z" style="fill:#263238"></path><path d="M135.49,151.23s.1.06.1.11c0,1.24.24,2.66,1.38,3a0,0,0,0,1,0,.07C135.59,154.3,135.31,152.41,135.49,151.23Z" style="fill:#263238"></path><path d="M136.54,149.89c2-.24,2.32,3.76.48,4S134.88,150.09,136.54,149.89Z" style="fill:#263238"></path><path d="M132.42,161a5.11,5.11,0,0,1-1.91,1.74,2.3,2.3,0,0,1-1.38.2c-1-.19-1.13-1.11-1-1.91a5.28,5.28,0,0,1,.35-1.25A6.61,6.61,0,0,0,132.42,161Z" style="fill:#263238"></path><path d="M130.51,162.71a2.3,2.3,0,0,1-1.38.2c-1-.19-1.13-1.11-1-1.91A2.36,2.36,0,0,1,130.51,162.71Z" style="fill:#ff9bbc"></path><path d="M110.71,156.82c2.86.4,4.72-3.94,5.19-5.73s-.73-9.39.26-12.11a5.76,5.76,0,0,1,6-3.92c2.35.37,5.68,2.94,7.33,2.57s1.56-4,2.72-4.15c2.56-.33,5.38,6,6.22,8.73,0,0-.42-12.52-13.7-12-12.1.43-15,8.21-15.6,11.91C108.07,149.18,110.71,156.82,110.71,156.82Z" style="fill:#263238"></path><path d="M125.55,159.08a5.76,5.76,0,1,1,5.74-7h0a5.76,5.76,0,0,1-4.32,6.89A5.82,5.82,0,0,1,125.55,159.08Zm.25-10.74a5.18,5.18,0,0,0-1.23.12,5,5,0,1,0,1.23-.12Z" style="fill:#37474f"></path><path d="M138.69,157.78c-2.2-.05-4.15-2.35-4.42-5.34a6.8,6.8,0,0,1,.83-4.12,3.58,3.58,0,0,1,6.11-.57,6.86,6.86,0,0,1,1.59,3.89c.29,3.16-1.38,5.91-3.73,6.13Zm-.33-10.72h-.29a3.1,3.1,0,0,0-2.31,1.64,6.2,6.2,0,0,0-.73,3.65c.26,2.74,2,4.82,4,4.64s3.29-2.55,3-5.29a6.06,6.06,0,0,0-1.4-3.46A3.18,3.18,0,0,0,138.36,147.06Z" style="fill:#37474f"></path><path d="M131.16,152.72l-.55-.54c.81-.81,2.72-2,4.26-.62l-.51.58C133,150.91,131.24,152.64,131.16,152.72Z" style="fill:#37474f"></path><path d="M105.77,156.58l-.71-.29c.13-.34,1.36-3.27,3-3.7s11.94-.4,12.38-.4V153c-3,0-11,.06-12.17.37S106.1,155.77,105.77,156.58Z" style="fill:#37474f"></path><path d="M114.21,155.15s-4.08-5.94-6.77-4.49.34,10,3.47,11.23a3.19,3.19,0,0,0,4.3-1.68Z" style="fill: rgb(255, 196, 192);"></path><path d="M108.37,153.1c-.05,0-.06.06,0,.08,2.2.91,3.34,3,4.14,5.09a1.77,1.77,0,0,0-2.64-.5c-.06,0,0,.13.06.12a2,2,0,0,1,2.16.7,10,10,0,0,1,1,1.76c.1.2.46.1.38-.13,0,0,0,0,0-.05C113.54,157.36,111.39,153.41,108.37,153.1Z" style="fill:#263238"></path><path d="M126.21,176.08,121.78,186l-12.87-12.81-3.79,4s12.44,20.23,12.54,19.32l4.52-8.52,6.16,6.07-.22-15Z" style="fill:#ebebeb"></path><path d="M128.67,186.61c-.12-2.48-.17-5-.42-7.44,0-.09-.15-.13-.18,0-.57,2.38,0,11.85-.09,14.12l0,0c-.26-.26-5.72-5.34-5.77-5.26-1,1.35-4.28,7.55-4.51,8.12-2-3.21-10.34-15.89-12.69-18.93-.06-.09-.21,0-.15.08,1.72,3.39,12.53,20.11,12.69,20.07a94.68,94.68,0,0,0,4.72-9c.92,1.1,6.42,6.83,6.45,6.46A73.86,73.86,0,0,0,128.67,186.61Z" style="fill:#263238"></path><path d="M59.4,252.43c6.54,4.57,27.31,1.27,58.54-3.7,4.32-.69,6.68-33.19,2-32.7-5.86.63-36.14,5.22-37.76,5.69C68.56,225.77,55,249.33,59.4,252.43Z" style="fill: rgb(255, 196, 192);"></path><path d="M156.72,221.75c-.5,3.75-9.65,1.75-9.65,1.75a7,7,0,0,1,2.3,4.16c.32,2.86-4,4.62-4,4.62a8.6,8.6,0,0,1,1.73,4.77c0,2.77-4.1,5.17-4.1,5.17a7.85,7.85,0,0,1-1.13,5.15c-4.5,6.69-25.23,3.93-31,1.9L107,218.6s18.86-8.84,27.32-8C139.06,211,157.47,216,156.72,221.75Z" style="fill: rgb(255, 196, 192);"></path><path d="M147,223.38c-4.71-2.09-9.91-3.06-14.94-3.94-.12,0-.14.15,0,.18,4.94,1.16,9.92,3,14.89,4A.13.13,0,0,0,147,223.38Z" style="fill:#263238"></path><path d="M145.29,232.1a13.42,13.42,0,0,0-3.45-.66c-1.24-.16-2.47-.29-3.71-.4-2.49-.22-5-.39-7.47-.48-.11,0-.14.16,0,.17,2.48.23,5,.49,7.41.82l3.69.53a15.94,15.94,0,0,0,3.5.36A.18.18,0,0,0,145.29,232.1Z" style="fill:#263238"></path><path d="M142.86,242.2a9.41,9.41,0,0,0-3.13-.43l-3.4-.26c-2.27-.18-4.53-.36-6.79-.62-.11,0-.14.16,0,.17,2.29.28,4.58.58,6.88.84,1.12.13,2.25.25,3.38.36a8.68,8.68,0,0,0,3.09.06A.07.07,0,0,0,142.86,242.2Z" style="fill:#263238"></path><path d="M114.36,213.57l-15.1,43.84s-37.16.29-42-5.4c-3.49-4.06,9.69-26.72,24.83-31.16Z" style="fill:#FFC727"></path><path d="M66.08,232.42c1.54-2.7,7.28-8.91,16-11.6.07,0,.13.09.05.12-6.29,2.64-14.24,9.09-15.94,11.56C66.13,232.57,66,232.49,66.08,232.42Z" style="fill:#263238"></path><path d="M93.22,250.82c1.12-4.34,2.47-8.61,3.84-12.88s2.72-8.55,4.19-12.79c.83-2.4,1.65-4.8,2.57-7.16a.06.06,0,0,1,.11,0c-1.12,4.33-2.45,8.61-3.79,12.88s-2.72,8.56-4.14,12.81q-1.2,3.61-2.56,7.17C93.39,251,93.18,251,93.22,250.82Z" style="fill:#263238"></path><path d="M114.25,213.2a39.18,39.18,0,0,0-5.13,1q-2.53.63-5.06,1.32c-3.35.91-18.23,3.34-24,6-.06,0,.4.19.47.16,2.67-1.39,31.8-7.27,33.46-7.88,0,.13-.9,2.94-.9,3.08s.13.16.19.07,1.09-3.14,1.21-3.38A.25.25,0,0,0,114.25,213.2Z" style="fill:#263238"></path><path d="M101.67,250.41c-.69,2.45-1.44,4.87-2.2,7.3-3.91,0-24.68.63-36.39-2.63a10.79,10.79,0,0,1-1.8-.69c17.55,3.24,32.9,2.44,38,2.73l-.28.2c.87-2.31,1.75-4.62,2.69-6.91Z" style="fill:#263238"></path></g><g id="freepik--Table--inject-2"><rect x="260.14" y="268.17" width="70.28" height="187.25" style="fill:#455a64"></rect><rect x="260.14" y="268.17" width="70.28" height="187.25" style="opacity:0.30000000000000004"></rect><rect x="41.45" y="268.17" width="70.28" height="187.25" style="fill:#455a64"></rect><rect x="111.73" y="268.17" width="218.68" height="21.84" style="fill:#455a64"></rect><rect x="111.73" y="268.17" width="218.68" height="21.84" style="opacity:0.2"></rect><path d="M112.18,279.08c69.91-.46,148.33-.46,218.24,0-69.91.47-148.33.46-218.24,0Z" style="opacity:0.1"></path><rect x="111.73" y="268.17" width="9.45" height="187.25" style="fill:#455a64"></rect><rect x="111.73" y="268.17" width="9.45" height="187.25" style="opacity:0.2"></rect><rect x="320.96" y="268.17" width="9.45" height="187.25" style="fill:#455a64"></rect><rect x="320.96" y="268.17" width="9.45" height="187.25" style="opacity:0.2"></rect><rect x="265.88" y="227.43" width="15.92" height="40.74" transform="translate(547.69 495.59) rotate(180)" style="fill:#FFC727"></rect><rect x="265.88" y="227.43" width="4.72" height="40.74" transform="translate(536.49 495.59) rotate(180)" style="fill:#fff;opacity:0.4"></rect><rect x="285.41" y="234.25" width="15.92" height="33.92" transform="translate(586.73 502.41) rotate(180)" style="fill:#FFC727"></rect><rect x="285.41" y="234.25" width="4.72" height="33.92" transform="translate(575.53 502.41) rotate(180)" style="fill:#fff;opacity:0.4"></rect><rect x="304.93" y="213.96" width="15.92" height="54.21" transform="translate(625.77 482.13) rotate(180)" style="fill:#FFC727"></rect><rect x="304.93" y="213.96" width="4.72" height="54.21" transform="translate(614.57 482.13) rotate(180)" style="fill:#fff;opacity:0.4"></rect><rect x="324.45" y="204.76" width="15.92" height="63.41" transform="translate(664.82 472.92) rotate(180)" style="fill:#FFC727"></rect><rect x="324.45" y="204.76" width="4.72" height="63.41" transform="translate(653.62 472.92) rotate(180)" style="fill:#fff;opacity:0.4"></rect><polygon points="293.31 231.75 265.49 219.95 266.27 218.1 292.79 229.36 312.29 208.05 336.03 197.37 336.85 199.2 313.49 209.7 293.31 231.75" style="fill:#455a64"></polygon><polygon points="336.87 201.37 340.37 196.52 334.42 195.92 336.87 201.37" style="fill:#455a64"></polygon><polygon points="231.47 268.17 160.97 268.17 155.51 220.28 226.01 220.28 231.47 268.17" style="fill:#a6a6a6"></polygon><polygon points="227.63 264.95 164.07 264.95 159.35 223.49 222.9 223.49 227.63 264.95" style="fill:#fff"></polygon><rect x="161.46" y="264.95" width="90.7" height="3.21" style="fill:#a6a6a6"></rect><rect x="181.16" y="264.95" width="83.2" height="3.21" style="fill:#dbdbdb"></rect><path d="M166.37,227.8q26-.23,52.07,0-26,.24-52.07,0Z" style="fill:#c7c7c7"></path><path d="M166.64,229.92q26-.22,52.07,0-26,.24-52.07,0Z" style="fill:#c7c7c7"></path><path d="M166.91,232.05q26-.24,52.06,0-26,.22-52.06,0Z" style="fill:#c7c7c7"></path><path d="M167.18,234.17q26-.24,52.06,0-26,.24-52.06,0Z" style="fill:#c7c7c7"></path><path d="M167.45,236.29q26-.22,52.06,0-26,.24-52.06,0Z" style="fill:#c7c7c7"></path><path d="M167.72,238.42q26-.24,52.06,0-26,.22-52.06,0Z" style="fill:#c7c7c7"></path><path d="M168,240.54q26-.24,52.06,0-26,.24-52.06,0Z" style="fill:#c7c7c7"></path><path d="M168.25,242.66q26-.22,52.07,0-26,.24-52.07,0Z" style="fill:#c7c7c7"></path><path d="M168.52,244.78q26-.22,52.07,0-26,.24-52.07,0Z" style="fill:#c7c7c7"></path><path d="M168.79,246.91q26-.24,52.07,0-26,.22-52.07,0Z" style="fill:#c7c7c7"></path><path d="M169.06,249q26-.22,52.06,0-26,.24-52.06,0Z" style="fill:#c7c7c7"></path><path d="M169.33,251.15q26-.22,52.06,0-26,.24-52.06,0Z" style="fill:#c7c7c7"></path><path d="M169.6,253.28q26-.24,52.06,0-26,.22-52.06,0Z" style="fill:#c7c7c7"></path><path d="M169.87,255.4q26-.22,52.06,0-26,.24-52.06,0Z" style="fill:#c7c7c7"></path><path d="M170.14,257.52q26-.22,52.06,0-26,.24-52.06,0Z" style="fill:#c7c7c7"></path><polygon points="177.71 242.66 173.76 242.66 175.95 260 179.9 260 177.71 242.66" style="fill:#FFC727"></polygon><polygon points="184.5 238.43 180.55 238.43 183.28 260 187.23 260 184.5 238.43" style="fill:#FFC727"></polygon><polygon points="192.1 240.61 188.15 240.61 190.6 260 194.55 260 192.1 240.61" style="fill:#FFC727"></polygon><polygon points="198.61 234.17 194.66 234.17 197.93 260 201.87 260 198.61 234.17" style="fill:#FFC727"></polygon><polygon points="206.37 237.63 202.42 237.63 205.25 260 209.2 260 206.37 237.63" style="fill:#FFC727"></polygon><polygon points="212.72 229.92 208.77 229.92 212.57 260 216.52 260 212.72 229.92" style="fill:#FFC727"></polygon><path d="M167.6,226.31c.62,4.2,1.8,12.62,2.37,16.81.78,5.61,1.51,11.22,2.24,16.83l-.35-.3c16.89-.06,33.77,0,50.65.35-16.88.33-33.76.4-50.65.35h-.31l0-.3c-1.37-10.87-2.74-22.79-3.92-33.73Z" style="fill:#c7c7c7"></path><polygon points="180.17 262.13 176.22 262.13 176.18 261.78 180.13 261.78 180.17 262.13" style="fill:#c7c7c7"></polygon><polygon points="187.5 262.13 183.55 262.13 183.5 261.78 187.45 261.78 187.5 262.13" style="fill:#c7c7c7"></polygon><polygon points="194.82 262.13 190.87 262.13 190.83 261.78 194.78 261.78 194.82 262.13" style="fill:#c7c7c7"></polygon><polygon points="202.15 262.13 198.2 262.13 198.15 261.78 202.1 261.78 202.15 262.13" style="fill:#c7c7c7"></polygon><polygon points="209.47 262.13 205.52 262.13 205.47 261.78 209.42 261.78 209.47 262.13" style="fill:#c7c7c7"></polygon><polygon points="216.79 262.13 212.84 262.13 212.8 261.78 216.75 261.78 216.79 262.13" style="fill:#c7c7c7"></polygon><polygon points="223.13 225.5 222.9 223.49 159.35 223.49 159.58 225.5 223.13 225.5" style="fill:#263238"></polygon><path d="M164.7,224.5a.55.55,0,0,0,.5.5.43.43,0,0,0,.4-.5.55.55,0,0,0-.51-.5A.41.41,0,0,0,164.7,224.5Z" style="fill:#c7c7c7"></path><path d="M162.86,224.5a.55.55,0,0,0,.5.5.43.43,0,0,0,.4-.5.55.55,0,0,0-.51-.5A.42.42,0,0,0,162.86,224.5Z" style="fill:#fff"></path><path d="M161,224.5a.55.55,0,0,0,.51.5.42.42,0,0,0,.39-.5.54.54,0,0,0-.5-.5A.42.42,0,0,0,161,224.5Z" style="fill:#FFC727"></path></g></svg>